<svg width="32" height="23" viewBox="0 0 32 23" fill="none" xmlns="http://www.w3.org/2000/svg">
<path d="M15.2939 2.1145C15.6841 1.72589 16.3159 1.72589 16.7061 2.1145L25.7197 11.092C26.3516 11.7214 25.9055 12.8 25.0137 12.8H6.98633C6.09448 12.8 5.64843 11.7214 6.28027 11.092L15.2939 2.1145Z" stroke="#E26F0B" stroke-width="2"/>
<mask id="path-2-inside-1_528_64" fill="white">
<path d="M22.4736 12C23.5781 12 24.4735 12.8955 24.4736 14V21C24.4736 22.1046 23.5782 23 22.4736 23H19.9922C19.1244 23 18.4209 22.2965 18.4209 21.4287C18.4209 20.5609 17.7174 19.8574 16.8496 19.8574H15.1504C14.2826 19.8574 13.5791 20.5609 13.5791 21.4287C13.5791 22.2965 12.8756 23 12.0078 23H9.52637C8.4218 23 7.52637 22.1046 7.52637 21V14C7.52647 12.8955 8.42186 12 9.52637 12H22.4736Z"/>
</mask>
<path d="M24.4736 14H26.4736V13.9998L24.4736 14ZM7.52637 14L5.52637 13.9998V14H7.52637ZM9.52637 12V10V12ZM22.4736 12V14V14.0002L24.4736 14L26.4736 13.9998C26.4734 11.7911 24.6829 10 22.4736 10V12ZM24.4736 14H22.4736V21H24.4736H26.4736V14H24.4736ZM24.4736 21H22.4736V23V25C24.6828 25 26.4736 23.2091 26.4736 21H24.4736ZM22.4736 23V21H19.9922V23V25H22.4736V23ZM16.8496 19.8574V17.8574H15.1504V19.8574V21.8574H16.8496V19.8574ZM12.0078 23V21H9.52637V23V25H12.0078V23ZM9.52637 23V21H7.52637H5.52637C5.52637 23.2091 7.31723 25 9.52637 25V23ZM7.52637 21H9.52637V14H7.52637H5.52637V21H7.52637ZM7.52637 14L9.52637 14.0002V14V12V10C7.31711 10 5.52657 11.7911 5.52637 13.9998L7.52637 14ZM9.52637 12V14H22.4736V12V10H9.52637V12ZM13.5791 21.4287H11.5791C11.5791 21.1919 11.771 21 12.0078 21V23V25C13.9802 25 15.5791 23.4011 15.5791 21.4287H13.5791ZM15.1504 19.8574V17.8574C13.178 17.8574 11.5791 19.4563 11.5791 21.4287H13.5791H15.5791C15.5791 21.6655 15.3872 21.8574 15.1504 21.8574V19.8574ZM18.4209 21.4287H20.4209C20.4209 19.4563 18.822 17.8574 16.8496 17.8574V19.8574V21.8574C16.6128 21.8574 16.4209 21.6655 16.4209 21.4287H18.4209ZM19.9922 23V21C20.229 21 20.4209 21.1919 20.4209 21.4287H18.4209H16.4209C16.4209 23.4011 18.0198 25 19.9922 25V23Z" fill="#E26F0B" mask="url(#path-2-inside-1_528_64)"/>
</svg>
